<svg width="95" height="21" viewBox="0 0 95 21" fill="none" xmlns="http://www.w3.org/2000/svg">
<path d="M13.5 2V16H10.84L3.86 7.5V16H0.66V2H3.34L10.3 10.5V2H13.5ZM20.4523 4.6V8.3H26.9323V10.9H20.4523V16H17.2123V2H27.7923V4.6H20.4523ZM33.3834 4.64H28.9034V2H41.1034V4.64H36.6234V16H33.3834V4.64ZM43.5427 16.16C42.996 16.16 42.536 15.9733 42.1627 15.6C41.7893 15.2267 41.6027 14.76 41.6027 14.2C41.6027 13.6267 41.7893 13.1667 42.1627 12.82C42.536 12.46 42.996 12.28 43.5427 12.28C44.0893 12.28 44.5493 12.46 44.9227 12.82C45.296 13.1667 45.4827 13.6267 45.4827 14.2C45.4827 14.76 45.296 15.2267 44.9227 15.6C44.5493 15.9733 44.0893 16.16 43.5427 16.16ZM57.137 16L54.437 12.1H54.277H51.457V16H48.217V2H54.277C55.517 2 56.5904 2.20667 57.497 2.62C58.417 3.03333 59.1237 3.62 59.617 4.38C60.1104 5.14 60.357 6.04 60.357 7.08C60.357 8.12 60.1037 9.02 59.597 9.78C59.1037 10.5267 58.397 11.1 57.477 11.5L60.617 16H57.137ZM57.077 7.08C57.077 6.29333 56.8237 5.69333 56.317 5.28C55.8104 4.85333 55.0704 4.64 54.097 4.64H51.457V9.52H54.097C55.0704 9.52 55.8104 9.30667 56.317 8.88C56.8237 8.45333 57.077 7.85333 57.077 7.08ZM63.1041 5.24H66.2241V16H63.1041V5.24ZM64.6641 3.74C64.0907 3.74 63.6241 3.57333 63.2641 3.24C62.9041 2.90667 62.7241 2.49333 62.7241 2C62.7241 1.50667 62.9041 1.09333 63.2641 0.76C63.6241 0.426666 64.0907 0.259999 64.6641 0.259999C65.2374 0.259999 65.7041 0.419999 66.0641 0.74C66.4241 1.06 66.6041 1.46 66.6041 1.94C66.6041 2.46 66.4241 2.89333 66.0641 3.24C65.7041 3.57333 65.2374 3.74 64.6641 3.74ZM76.0597 5.08C77.393 5.08 78.4664 5.48 79.2797 6.28C80.1064 7.08 80.5197 8.26667 80.5197 9.84V16H77.3997V10.32C77.3997 9.46667 77.213 8.83333 76.8397 8.42C76.4664 7.99333 75.9264 7.78 75.2197 7.78C74.433 7.78 73.8064 8.02667 73.3397 8.52C72.873 9 72.6397 9.72 72.6397 10.68V16H69.5197V5.24H72.4997V6.5C72.913 6.04667 73.4264 5.7 74.0397 5.46C74.653 5.20667 75.3264 5.08 76.0597 5.08ZM94.965 5.24V14.2C94.965 16.1733 94.4517 17.64 93.425 18.6C92.3983 19.56 90.8983 20.04 88.925 20.04C87.885 20.04 86.8983 19.9133 85.965 19.66C85.0317 19.4067 84.2583 19.04 83.645 18.56L84.885 16.32C85.3383 16.6933 85.9117 16.9867 86.605 17.2C87.2983 17.4267 87.9917 17.54 88.685 17.54C89.765 17.54 90.5583 17.2933 91.065 16.8C91.585 16.32 91.845 15.5867 91.845 14.6V14.14C91.0317 15.0333 89.8983 15.48 88.445 15.48C87.4583 15.48 86.5517 15.2667 85.725 14.84C84.9117 14.4 84.265 13.7867 83.785 13C83.305 12.2133 83.065 11.3067 83.065 10.28C83.065 9.25333 83.305 8.34667 83.785 7.56C84.265 6.77333 84.9117 6.16667 85.725 5.74C86.5517 5.3 87.4583 5.08 88.445 5.08C90.005 5.08 91.1917 5.59333 92.005 6.62V5.24H94.965ZM89.065 12.92C89.8917 12.92 90.565 12.68 91.085 12.2C91.6183 11.7067 91.885 11.0667 91.885 10.28C91.885 9.49333 91.6183 8.86 91.085 8.38C90.565 7.88667 89.8917 7.64 89.065 7.64C88.2383 7.64 87.5583 7.88667 87.025 8.38C86.4917 8.86 86.225 9.49333 86.225 10.28C86.225 11.0667 86.4917 11.7067 87.025 12.2C87.5583 12.68 88.2383 12.92 89.065 12.92Z" fill="white"/>
</svg>
